<svg width="70" height="61" viewBox="0 0 70 61" fill="none" xmlns="http://www.w3.org/2000/svg">
<path d="M69.6392 4.03227C69.6392 2.01431 68.0205 0.372437 66.0309 0.372437H3.96912C1.97959 0.372437 0.36084 2.01431 0.36084 4.03227V46.1543C0.36084 48.1722 1.97959 49.8141 3.96912 49.8141H26.7082V55.2395H23.3966C22.436 55.2395 21.5326 55.6183 20.8525 56.3053L19.0477 58.1259C18.137 59.0449 18.7796 60.6277 20.0653 60.6277H49.9348C51.2198 60.6277 51.8637 59.0456 50.9524 58.1259L49.1476 56.3053C48.4675 55.6177 47.5641 55.2395 46.6035 55.2395H43.2919V49.8141H66.0309C68.0205 49.8141 69.6392 48.1722 69.6392 46.1543C69.6392 31.1918 69.6392 20.0715 69.6392 4.03227ZM1.80418 4.03227C1.80418 2.82138 2.77529 1.8364 3.96912 1.8364H66.0309C67.2248 1.8364 68.1959 2.82138 68.1959 4.03227V38.8811H1.80418V4.03227ZM48.1293 57.3423C48.13 57.343 48.13 57.343 48.13 57.343L49.9348 59.1636H20.0653L21.8708 57.3423C22.2789 56.9306 22.8207 56.7033 23.3966 56.7033H46.6035C47.1792 56.7033 47.7212 56.9306 48.1293 57.3423ZM41.8487 55.2394H28.1514V49.814H41.8487V55.2394ZM68.1959 46.1543C68.1959 47.3652 67.2248 48.3501 66.0309 48.3501C45.3319 48.3501 24.6188 48.3501 3.96912 48.3501C2.77529 48.3501 1.80418 47.3652 1.80418 46.1543V40.3457H68.1959V46.1543Z" fill="#1A2E35"/>
</svg>
