<svg width="62" height="63" viewBox="0 0 62 63" fill="none" xmlns="http://www.w3.org/2000/svg">
<path d="M58.5862 4.43102H53.3575V0.906441C53.3575 0.546374 53.0659 0.255005 52.7061 0.255005C52.3463 0.255005 52.0547 0.546374 52.0547 0.906441V4.43102H13.4587V0.906441C13.4587 0.546374 13.1671 0.255005 12.8073 0.255005C12.4475 0.255005 12.1558 0.546374 12.1558 0.906441V4.43102H8.48272C6.75861 4.43102 5.3561 5.83381 5.3561 7.55806C5.35583 13.2883 5.35415 50.6848 5.35415 50.9291H1.16364C0.803855 50.9291 0.512207 51.2204 0.512207 51.5805C0.512207 54.4732 2.69629 56.7191 5.35401 57.0329V59.6699C5.35401 61.394 6.7568 62.7969 8.48105 62.7969H58.5863C60.3104 62.7969 61.7133 61.3941 61.7133 59.6699C61.7133 48.1802 61.7133 18.4647 61.7133 7.55806C61.7132 5.83381 60.3104 4.43102 58.5862 4.43102ZM8.48258 5.73403H12.1557V10.9039C12.1557 11.2639 12.4474 11.5553 12.8071 11.5553C13.1669 11.5553 13.4586 11.2639 13.4586 10.9039V5.73403H52.0545V10.9039C52.0545 11.2639 52.3462 11.5553 52.706 11.5553C53.0657 11.5553 53.3574 11.2639 53.3574 10.9039V5.73403H58.586C59.5918 5.73403 60.41 6.55227 60.41 7.55806V16.0731H6.65884V7.55792C6.65884 6.55213 7.47707 5.73403 8.48258 5.73403ZM6.65703 17.3766H60.4103V51.5786C60.4103 53.891 58.5324 55.7723 56.2237 55.7735C56.2216 55.7735 56.2201 55.7724 56.218 55.7724C53.9031 55.7724 52.026 53.8963 52.026 51.5804C52.026 51.2203 51.7343 50.9289 51.3745 50.9289H6.65703V17.3766ZM1.86469 52.2319H50.7611C50.9243 53.6194 51.6051 54.8707 52.666 55.7724H6.0074C3.89786 55.7724 2.16985 54.2184 1.86469 52.2319ZM60.4102 59.6699C60.4102 60.6757 59.592 61.4939 58.5862 61.4939H8.48105C7.47526 61.4939 6.65703 60.6758 6.65703 59.6699V57.0767H56.2212C57.8995 57.0767 59.4022 56.3172 60.4103 55.1258V59.6699H60.4102Z" fill="#1A2E35"/>
</svg>
